<?xml version="1.0" encoding="iso-8859-1"?>
<!-- Generator: Adobe Illustrator 19.0.0, SVG Export Plug-In . SVG Version: 6.00 Build 0)  -->
<svg version="1.1" id="Capa_1" xmlns="http://www.w3.org/2000/svg" xmlns:xlink="http://www.w3.org/1999/xlink" x="0px" y="0px"
	 viewBox="0 0 512 512" style="enable-background:new 0 0 512 512;" xml:space="preserve">
<g>
	<g>
		<path d="M150,326.868V362h212v-35.132C295.544,296.591,216.456,296.591,150,326.868z"/>
	</g>
</g>
<g>
	<g>
		<path d="M256,0C166.179,0,90.943,67.859,77.413,153.879C118.936,161.994,150,200.66,150,245.208v49.083
			c67.236-26.776,144.764-26.776,212,0v-49.083c0-44.548,31.064-83.214,72.587-91.329C421.057,67.859,345.821,0,256,0z M195,182
			c-8.284,0-15-6.716-15-15s6.716-15,15-15s15,6.716,15,15S203.284,182,195,182z M256,242c-8.284,0-15-6.716-15-15s6.716-15,15-15
			s15,6.716,15,15S264.284,242,256,242z M256,122c-8.284,0-15-6.716-15-15s6.716-15,15-15s15,6.716,15,15S264.284,122,256,122z
			 M317,182c-8.284,0-15-6.716-15-15s6.716-15,15-15s15,6.716,15,15S325.284,182,317,182z"/>
	</g>
</g>
<g>
	<g>
		<path d="M441.924,182.822C412.422,187.621,392,215.323,392,245.212V377c0,8.284-6.716,15-15,15H135c-8.284,0-15-6.716-15-15
			V245.212c0-29.888-20.422-57.59-49.924-62.39C32.487,176.706,0,205.56,0,242c0,33.137,26.863,60,60,60v105
			c0,19.565,12.563,36.048,30,42.246V467c0,24.814,20.186,45,45,45c24.814,0,45-20.186,45-45v-15h152v15c0,24.814,20.186,45,45,45
			c24.814,0,45-20.186,45-45v-17.754c17.437-6.198,30-22.681,30-42.246V302c33.137,0,60-26.863,60-60
			C512,205.56,479.513,176.706,441.924,182.822z"/>
	</g>
</g>
<g>
</g>
<g>
</g>
<g>
</g>
<g>
</g>
<g>
</g>
<g>
</g>
<g>
</g>
<g>
</g>
<g>
</g>
<g>
</g>
<g>
</g>
<g>
</g>
<g>
</g>
<g>
</g>
<g>
</g>
</svg>
