<?xml version="1.0" encoding="UTF-8"?>
<svg width="139px" height="139px" viewBox="0 0 139 139" version="1.1" xmlns="http://www.w3.org/2000/svg" xmlns:xlink="http://www.w3.org/1999/xlink">
    <!-- Generator: Sketch 49.2 (51160) - http://www.bohemiancoding.com/sketch -->
    <title>connection</title>
    <desc>Created with Sketch.</desc>
    <defs></defs>
    <g id="Page-1" stroke="none" stroke-width="1" fill="none" fill-rule="evenodd">
        <g id="Login-Page" transform="translate(-106.000000, -643.000000)" fill="#FFFFFF" fill-rule="nonzero">
            <g id="connection" transform="translate(106.000000, 643.000000)">
                <path d="M107.734498,74.1562972 L92.7029017,55.0220166 C98.0404385,49.5501172 101.263687,42.3620259 101.799206,34.7368542 L125.074908,34.7368542 L125.074908,37.2840778 C119.687003,38.3912517 115.817948,43.1305348 115.811869,48.6308011 C115.813316,55.0252007 120.998302,60.2079323 127.392983,60.2067745 C133.787665,60.2056167 138.970624,55.0205694 138.969467,48.6261698 C138.968309,43.1250352 135.096648,38.3843047 129.706427,37.2840778 L129.706427,32.4211964 C129.706427,31.1423743 128.669546,30.1055385 127.390668,30.1055385 L101.799206,30.1055385 C101.346475,23.6897191 98.9832422,17.5561205 95.0140299,12.4949608 L98.2445149,9.26461819 L125.501008,9.26461819 C126.779886,12.8819652 130.749388,14.7776205 134.366605,13.498509 C137.984111,12.219687 139.87985,8.25036007 138.600682,4.63330256 C137.321514,1.01624505 133.352591,-0.879699791 129.735374,0.399122238 C127.756847,1.0984509 126.200657,2.65486241 125.501297,4.6330131 L97.2860798,4.6330131 C96.6718245,4.6330131 96.0830426,4.877315 95.6488376,5.31150084 L91.9088855,9.05128821 C79.0396294,-3.34211242 58.5596287,-2.95684485 46.1653928,9.91184455 C40.8976183,15.3814283 37.7218432,22.529864 37.1944289,30.1052491 L17.7420466,30.1052491 L10.1715384,13.0785066 C13.5557318,11.2974763 14.855452,7.11076696 13.0746327,3.72672252 C11.2938135,0.342678079 7.10663028,-0.956695413 3.72243681,0.824045448 C0.338532811,2.60478631 -0.961187373,6.79149564 0.819631908,10.1755401 C1.75548834,11.9539653 3.41820387,13.238287 5.37559983,13.6941821 L14.1175931,33.3633796 C14.4898514,34.1990426 15.3194724,34.7371436 16.2341975,34.7365647 L37.1941394,34.7365647 C37.7273431,42.2740309 40.8883552,49.3854161 46.1260249,54.8318432 L26.5763807,74.3806265 C13.9355164,72.4867079 2.15264114,81.1982126 0.258639098,93.8385202 C-1.63536294,106.478828 7.0765254,118.261184 19.7173897,120.155103 C20.0989111,120.212415 20.4818799,120.259886 20.8657171,120.297805 L20.8657171,131.994193 C20.8657171,133.273015 21.9025985,134.309851 23.1814769,134.309851 L44.4494148,134.309851 C45.7282932,137.927198 49.6977949,139.822853 53.3150117,138.543742 C56.9322285,137.26463 58.8282569,133.295593 57.5490891,129.678535 C56.2699212,126.061478 52.300709,124.165533 48.6834922,125.444644 C46.7049649,126.143973 45.1487743,127.700384 44.4494148,129.678535 L25.4972367,129.678535 L25.4972367,120.297805 C38.2159684,119.029983 47.498981,107.691943 46.2311025,94.973482 C45.3731135,86.3673398 39.7875009,78.9575242 31.7497881,75.7630742 L49.5811385,57.9325091 C61.193516,67.075305 77.5387276,67.1410118 89.2246305,58.0922895 L102.072466,74.445465 C84.3322984,76.9200348 71.9571676,93.3064979 74.4318464,111.045595 C76.9065252,128.784981 93.2937099,141.159567 111.033588,138.684997 C128.773755,136.210427 141.148886,119.823964 138.674207,102.084867 C136.500867,86.5033847 123.45706,74.729133 107.734498,74.1562972 Z M134.337947,48.6308011 C134.337947,52.4675566 131.227592,55.5777745 127.390668,55.5777745 C123.553743,55.5777745 120.443388,52.4675566 120.443388,48.6308011 C120.443388,44.7940455 123.553743,41.6838276 127.390668,41.6838276 C131.227592,41.6838276 134.337947,44.7940455 134.337947,48.6308011 Z M132.022187,4.63330256 C133.301066,4.63330256 134.337947,5.67013834 134.337947,6.94896037 C134.337947,8.2277824 133.301066,9.26461819 132.022187,9.26461819 C130.743309,9.26461819 129.706427,8.2277824 129.706427,6.94896037 C129.706427,5.67013834 130.743309,4.63330256 132.022187,4.63330256 Z M6.97115833,9.26461819 C5.69227999,9.26461819 4.65539854,8.2277824 4.65539854,6.94896037 C4.65539854,5.67013834 5.69227999,4.63330256 6.97115833,4.63330256 C8.25003668,4.63330256 9.28691813,5.67013834 9.28691813,6.94896037 C9.28691813,8.2277824 8.25003668,9.26461819 6.97115833,9.26461819 Z M50.9705944,129.678825 C52.2494728,129.678825 53.2863542,130.71566 53.2863542,131.994482 C53.2863542,133.273304 52.2494728,134.31014 50.9705944,134.31014 C49.6917161,134.31014 48.6548346,133.273304 48.6548346,131.994482 C48.6548346,130.71566 49.6917161,129.678825 50.9705944,129.678825 Z M32.4445161,113.279336 C26.7214052,116.621409 19.6415486,116.621409 13.9184377,113.279336 L13.9184377,108.837904 C13.9184377,103.722327 18.065674,99.575273 23.1814769,99.575273 C28.2972797,99.575273 32.4445161,103.722327 32.4445161,108.837904 L32.4445161,113.279336 Z M18.5499573,90.3126418 C18.5499573,87.7547083 20.6234307,85.6813261 23.1814769,85.6813261 C25.7395231,85.6813261 27.8129965,87.7547083 27.8129965,90.3126418 C27.8129965,92.8705753 25.7395231,94.9439574 23.1814769,94.9439574 C20.6234307,94.9439574 18.5499573,92.8702858 18.5499573,90.3126418 Z M37.0760357,84.9657879 C40.0697341,88.3602528 41.7173972,92.7333726 41.7075552,97.2596152 C41.7066868,101.759517 40.0593132,106.103402 37.0760357,109.472395 L37.0760357,108.837904 C37.073141,103.775297 34.3165184,99.1147466 29.88097,96.6737538 C33.4133721,92.9733326 33.2767422,87.110087 29.5761581,83.5778405 C25.8755739,80.0458834 20.0120701,80.1822177 16.479668,83.8826389 C13.0630539,87.4617775 13.0630539,93.0943257 16.479668,96.6734643 C12.044988,99.115036 9.28952336,103.775297 9.28691813,108.837615 L9.28691813,109.472105 C2.5193996,101.798594 3.25407439,90.0920754 10.9276339,83.3248548 C18.601483,76.5576343 30.3085171,77.2922768 37.0760357,84.9657879 Z M85.7069913,54.938653 C76.0395626,61.9568329 62.9537829,61.9568329 53.2863542,54.938653 L53.2863542,49.3254984 C53.2863542,45.105212 56.7078893,41.6838276 60.9283615,41.6838276 L66.0693483,41.6838276 L62.7091808,50.0850342 C62.365001,50.9455905 62.5673405,51.9288767 63.2232795,52.583629 L67.8547991,57.2149446 C68.7591033,58.1189195 70.2249792,58.1189195 71.1292834,57.2149446 L75.760803,52.583629 C76.416742,51.9285873 76.6190815,50.9455905 76.2749017,50.0850342 L72.91705,41.6838276 L78.064984,41.6838276 C82.2854562,41.6838276 85.7069913,45.105212 85.7069913,49.3254984 L85.7069913,54.938653 Z M69.8281159,17.3346857 C69.7412749,17.4794143 69.6706442,17.6328266 69.6173818,17.7928965 C68.4456073,21.3057494 62.119241,22.6372526 58.0458195,23.0239675 C58.6670221,15.2636192 62.3189753,11.5799865 69.4969622,11.5799865 C76.0690885,11.5799865 79.6863053,14.6875993 80.72145,21.1714412 L73.0053383,16.5401256 C71.9082471,15.8824788 70.4857917,16.2382217 69.8281159,17.3346857 Z M72.6901055,21.7552765 L80.966631,26.7223625 C80.0380114,32.3910928 73.0513641,37.052512 69.4966728,37.052512 C64.33166,36.1728515 60.0350572,32.5913972 58.2397644,27.6694665 C62.2043452,27.3429588 69.3623587,26.1411324 72.6901055,21.7552765 Z M71.4094904,50.3883854 L69.4966728,52.3034344 L67.5838552,50.3883854 L69.4966728,45.6019206 L71.4094904,50.3883854 Z M79.6003328,37.1590322 C83.212918,34.3162728 85.435758,30.0629883 85.7069913,25.4742229 C85.7069913,10.1630934 76.8908938,6.94896037 69.4966728,6.94896037 C62.1024517,6.94896037 53.2863542,10.1630934 53.2863542,25.4742229 C53.5555613,30.0655934 55.7786907,34.3217725 59.3930128,37.1659792 C53.2545125,37.922331 48.6458611,43.1406658 48.6548346,49.3254984 L48.6548346,50.7334184 C38.5034121,39.2234412 39.6051348,21.6635185 51.1159083,11.512543 C62.6266819,1.36156752 80.1870884,2.46324172 90.3385109,13.9732189 C99.6015501,24.4761744 99.6015501,40.2301734 90.3385109,50.7331289 L90.3385109,49.325209 C90.3509581,43.1380607 85.7414383,37.915384 79.6003328,37.1590322 Z M122.759148,129.039703 C113.091719,136.057883 100.00594,136.057883 90.3385109,129.039703 L90.3385109,123.426549 C90.3385109,119.206262 93.760046,115.784878 97.9805182,115.784878 L103.121505,115.784878 L99.7613375,124.186084 C99.4171577,125.046641 99.6194972,126.029637 100.275436,126.684679 L104.906956,131.315995 C105.81126,132.21997 107.277136,132.21997 108.18144,131.315995 L112.81296,126.684679 C113.468899,126.029637 113.671238,125.046641 113.327058,124.186084 L109.969207,115.784878 L115.117141,115.784878 C119.337613,115.784878 122.759148,119.206262 122.759148,123.426549 L122.759148,129.039703 Z M109.742262,95.8563266 L109.742262,95.8540109 L118.018788,100.821097 C117.090168,106.492143 110.103521,111.153562 106.548829,111.153562 C101.383817,110.273902 97.0872139,106.692447 95.2919211,101.770517 C99.2565019,101.444009 106.414515,100.241893 109.742262,95.8563266 Z M95.0973973,97.1253071 C95.7180209,89.3655377 99.3699741,85.6813261 106.548829,85.6813261 C113.120956,85.6813261 116.738173,88.7889389 117.773317,95.2727808 L110.057206,90.6414652 C108.960404,89.9835289 107.537948,90.3392718 106.879983,91.4360253 C106.793142,91.5807539 106.722511,91.7341662 106.669249,91.8942361 C105.497475,95.407089 99.1708188,96.7385922 95.0973973,97.1253071 Z M108.461647,124.489435 L106.548829,126.404484 L104.636012,124.489435 L106.548829,119.702971 L108.461647,124.489435 Z M127.390668,124.841126 L127.390668,123.426259 C127.403115,117.238821 122.793595,112.016434 116.652489,111.259793 C120.265075,108.417033 122.487915,104.163749 122.759148,99.5749836 C122.759148,84.2638541 113.943051,81.049721 106.548829,81.049721 C99.1546085,81.049721 90.3385109,84.2638541 90.3385109,99.5749836 C90.607718,104.166354 92.8308474,108.422533 96.4451695,111.26674 C90.3066692,112.023092 85.6980178,117.241427 85.7069913,123.426259 L85.7069913,124.834179 C75.5793053,113.315229 76.7076593,95.7671738 88.2271169,85.6399337 C99.7465746,75.5126937 117.295402,76.640998 127.423088,88.1599484 C131.885557,93.2352914 134.344026,99.7637097 134.337947,106.521668 C134.3365,113.27181 131.865584,119.787782 127.390668,124.841126 Z" id="Shape"></path>
            </g>
        </g>
    </g>
</svg>