<?xml version="1.0" encoding="UTF-8"?>
<svg width="157px" height="155px" viewBox="0 0 157 155" version="1.1" xmlns="http://www.w3.org/2000/svg" xmlns:xlink="http://www.w3.org/1999/xlink">
    <!-- Generator: Sketch 49.2 (51160) - http://www.bohemiancoding.com/sketch -->
    <title>manager</title>
    <desc>Created with Sketch.</desc>
    <defs></defs>
    <g id="Page-1" stroke="none" stroke-width="1" fill="none" fill-rule="evenodd">
        <g id="Login-Page" transform="translate(-88.000000, -244.000000)" fill="#FFFFFF" fill-rule="nonzero">
            <g id="manager" transform="translate(88.000000, 244.000000)">
                <path d="M79,30 C87.2714729,30 94,23.2709381 94,15 C94,6.72906193 87.2709381,0 79,0 C70.7290619,0 64,6.72906193 64,15 C64,23.2714729 70.7290619,30 79,30 Z" id="Shape"></path>
                <path d="M55.5339946,75 L102.466005,75 C105.52252,75 108,72.5107325 108,69.4403337 L108,48.8842834 C108,43.1939959 104.359675,38.1482842 98.9769404,36.3766338 L98.9519958,36.3681034 L91.0785125,35.0586922 C90.4081917,34.8518308 89.6922274,35.2079736 89.4512729,35.8722759 L80.5179078,60.4957115 C80.0025622,61.9160175 78.0027452,61.9160175 77.4873996,60.4957115 L68.5535038,35.8722759 C68.3587233,35.3359291 67.8550539,35.0000459 67.3152944,35.0000459 C67.1873868,35.0000459 59.0533116,36.3670371 59.0533116,36.3670371 C53.6259951,38.183472 50,43.2377141 50,48.9525264 L50,69.4408669 C50,72.5112656 52.4774803,75 55.5339946,75 Z" id="Shape"></path>
                <path d="M146.228806,112.508265 C146.199567,112.498675 146.170328,112.489085 146.141089,112.480028 L141.873227,111.168344 C140.58936,110.774093 139.195447,111.085764 138.201314,111.986148 L129.000532,120.322426 L119.799749,111.986148 C118.805616,111.085232 117.411172,110.773027 116.127836,111.168344 L111.859443,112.480028 C111.830204,112.489085 111.800965,112.498675 111.771725,112.508265 C105.328466,114.660662 101,120.679916 101,127.486074 L101,151.182158 C101,153.290869 102.705443,155 104.809603,155 L153.190397,155 C155.294557,155 157,153.290869 157,151.182158 L157,127.486074 C157.000532,120.679916 152.671534,114.660662 146.228806,112.508265 Z" id="Shape"></path>
                <path d="M129.000267,109 C137.822395,109 145,101.822275 145,93 C145,84.177725 137.822395,77 129.000267,77 C120.177605,77 113,84.177725 113,93 C113,101.822275 120.177605,109 129.000267,109 Z" id="Shape"></path>
                <path d="M45.2282747,112.508265 C45.1990355,112.498675 45.1697963,112.489085 45.1405571,112.480028 L40.8726955,111.168344 C39.58936,110.773027 38.1949154,111.085232 37.2007822,111.986148 L27.9994684,120.322426 L18.7986861,111.986148 C17.804553,111.085232 16.4101084,110.773027 15.1267729,111.168344 C15.1267729,111.168344 10.8009645,112.498675 10.7711937,112.508265 C4.32899808,114.660662 0,120.679916 0,127.486074 L0,151.182158 C0,153.290869 1.70544343,155 3.80960337,155 L52.1903966,155 C54.2945566,155 56,153.290869 56,151.182158 L56,127.486074 C56,120.679916 51.6715335,114.660662 45.2282747,112.508265 Z" id="Shape"></path>
                <path d="M12,93 C12,101.822275 19.1776051,109 27.9997326,109 C36.8223949,109 44,101.822275 44,93 C44,84.177725 36.8223949,77 27.9997326,77 C19.1776051,77 12,84.177725 12,93 Z" id="Shape"></path>
                <path d="M133.958627,50.7852009 C132.658093,50.3983104 131.193069,50.6613327 130.098414,51.6174898 C128.40841,53.0928392 128.242328,55.6503224 129.727515,57.3291319 L135.296834,63.6247994 C136.070468,64.4987291 137.185287,65 138.356882,65 C139.528476,65 140.643826,64.4987291 141.41693,63.6247994 L146.986249,57.3291319 C148.471436,55.6503224 148.305354,53.0928392 146.61535,51.6174898 C145.354082,50.5163805 143.600935,50.3308418 142.175176,51.0034198 C141.346358,42.1639737 137.87933,33.8695478 132.134378,27.3756912 C130.649191,25.6968817 128.075185,25.5313727 126.38465,27.0072492 C124.694646,28.4825986 124.528564,31.0400817 126.013751,32.7188912 C130.408292,37.6857428 133.137237,44.0009129 133.958627,50.7852009 Z" id="Shape"></path>
                <path d="M16.5836009,63.6247669 C17.3572353,64.4987173 18.4720542,65 19.6436488,65 C20.8152433,65 21.9305928,64.4987173 22.7036967,63.6247669 L28.2730156,57.328951 C29.7582027,55.6501019 29.5921207,53.0925585 27.9021168,51.6171743 C26.8069306,50.6615217 25.3424374,50.3984932 24.0419038,50.7853928 C24.8632935,44.0009448 27.5922385,37.6856258 31.9862487,32.7186572 C33.4714358,31.0398081 33.3053538,28.4822646 31.6153499,27.0068804 C29.9248153,25.5314962 27.3508094,25.6970092 25.8656223,27.3753311 C20.1212009,33.8693409 16.6541725,42.1639624 15.8248236,51.0030897 C14.3985346,50.3299688 12.6459184,50.516039 11.3846501,51.6171743 C9.69464625,53.0925585 9.52856423,55.6501019 11.0137513,57.328951 L16.5836009,63.6247669 Z" id="Shape"></path>
                <path d="M81.5606593,35.5617108 C81.2371478,35.1881201 80.7636309,35 80.2851138,35 L76.7149862,35 C76.2364691,35 75.7629522,35.1881201 75.4394406,35.5617108 C74.9384227,36.1403789 74.8659201,36.9760562 75.2214328,37.6294424 L77.130001,40.6785782 L76.2364691,48.6659996 L77.9955319,53.6260119 C78.1670381,54.1246627 78.8325619,54.1246627 79.004068,53.6260119 L80.7631308,48.6659996 L79.8695989,40.6785782 L81.7781671,37.6294424 C82.1341798,36.9760562 82.0616772,36.1403789 81.5606593,35.5617108 Z" id="Shape"></path>
            </g>
        </g>
    </g>
</svg>