<?xml version="1.0" encoding="UTF-8"?>
<svg width="155px" height="162px" viewBox="0 0 155 162" version="1.1" xmlns="http://www.w3.org/2000/svg" xmlns:xlink="http://www.w3.org/1999/xlink">
    <!-- Generator: Sketch 49.2 (51160) - http://www.bohemiancoding.com/sketch -->
    <title>stopwatch (1)</title>
    <desc>Created with Sketch.</desc>
    <defs></defs>
    <g id="Page-1" stroke="none" stroke-width="1" fill="none" fill-rule="evenodd">
        <g id="Login-Page" transform="translate(-90.000000, -439.000000)" fill="#FFFFFF" fill-rule="nonzero">
            <g id="stopwatch-(1)" transform="translate(90.000000, 439.000000)">
                <path d="M90.3267587,98.0491882 L115.4912,63.2605436 C116.262555,62.1935557 116.146986,60.7207361 115.211685,59.7854418 C114.276384,58.8555229 112.803553,58.7372673 111.736557,59.5059286 L76.9422753,84.6782436 C74.673901,86.3284466 73.2467603,88.8790047 73.0290608,91.6768245 C72.8113614,94.4746442 73.8246044,97.2133362 75.8054005,99.1941174 C77.6141871,101.00289 80.0169438,102 82.5702087,102 C85.6287513,102 88.526035,100.524493 90.3267587,98.0491882 Z" id="Shape"></path>
                <path d="M143.723158,52.8228 C143.696134,52.7661 143.696134,52.7067 143.666408,52.65 C143.63398,52.596 143.582636,52.5663 143.547506,52.515 C140.815445,47.8332 137.583453,43.4781 133.913683,39.5307 L139.715595,33.7338 L143.536696,37.5516 L155,26.0982 L143.536696,14.6421 L132.070691,26.0982 L135.894494,29.916 L130.092582,35.7129 C126.141768,32.0463 121.785605,28.8144 117.097054,26.0847 C117.04571,26.0496 117.015984,25.9983 116.961938,25.9659 C116.905189,25.9335 116.845737,25.9362 116.788988,25.9065 C108.430667,21.0951 99.0400542,17.8902 89.0306067,16.7157 L89.0306067,13.5 L93.0841086,13.5 C96.8106281,13.5 99.8399452,10.4733 99.8399452,6.75 C99.8399452,3.0267 96.8052234,0 93.0787039,0 L68.7576921,0 C65.0311727,0 62.0018555,3.0267 62.0018555,6.75 C62.0018555,10.4733 65.0311727,13.5 68.7576921,13.5 L72.8111941,13.5 L72.8111941,16.6212 C69.8926727,16.9317 66.9795559,17.4069 64.0988672,18.0657 C62.6450112,18.3978 61.7343244,19.8477 62.0694139,21.3003 C62.4018011,22.7529 63.8529548,23.6601 65.3068108,23.328 C67.8632194,22.7421 70.4466513,22.3074 73.0354879,22.0185 L75.7135015,21.816 C76.6187836,21.7485 77.429484,21.6999 78.2131611,21.6621 L78.2131611,27 C78.2131611,28.4931 79.4211047,29.7 80.9154957,29.7 C82.4098868,29.7 83.6178304,28.4931 83.6178304,27 L83.6178304,21.681 C93.781311,22.1481 103.358385,24.8751 111.873441,29.3625 L109.208939,33.9741 C108.463095,35.2674 108.906278,36.9171 110.197994,37.6623 C110.62226,37.908 111.087062,38.0241 111.546459,38.0241 C112.481467,38.0241 113.389451,37.5381 113.889383,36.6741 L116.545778,32.0733 C125.001383,37.4328 132.184189,44.6094 137.548323,53.0577 L132.946247,55.7118 C131.659936,56.457 131.216753,58.1067 131.965299,59.4 C132.467934,60.2667 133.373216,60.75 134.308224,60.75 C134.767621,60.75 135.232422,60.6339 135.656689,60.3882 L140.269574,57.726 C144.823008,66.3552 147.560473,76.0806 147.968525,86.3973 L142.631414,86.3973 C141.137023,86.3973 139.92908,87.6042 139.92908,89.0973 C139.92908,90.5904 141.137023,91.7973 142.631414,91.7973 L147.968525,91.7973 C147.560473,102.114 144.823008,111.8394 140.269574,120.4686 L135.656689,117.8064 C134.364973,117.0585 132.711144,117.4986 131.965299,118.7946 C131.219455,120.0879 131.662638,121.7376 132.954354,122.4828 L137.55643,125.1369 C132.192296,133.5852 125.00949,140.7618 116.553885,146.1213 L113.89749,141.5232 C113.148943,140.2272 111.492412,139.7844 110.206101,140.535 C108.911683,141.2802 108.4685,142.9326 109.217046,144.2232 L111.881548,148.8321 C103.366492,153.3195 93.789418,156.0465 83.6259374,156.5136 L83.6259374,151.2 C83.6259374,149.7069 82.4179938,148.5 80.9236027,148.5 C79.4292117,148.5 78.2212681,149.7069 78.2212681,151.2 L78.2212681,156.5352 C73.9056396,156.3867 69.5764995,155.8467 65.3149178,154.8693 C63.8610618,154.5318 62.4099081,155.4444 62.0775209,156.897 C61.7424314,158.3496 62.6531182,159.7995 64.1069742,160.1316 C69.5008342,161.3736 75.0108945,162 80.4777175,162 C80.6101319,162 80.7371416,161.9919 80.869556,161.9892 C80.8884724,161.9892 80.901984,162 80.918198,162 C80.9398167,162 80.9587331,161.9865 80.9803517,161.9865 C93.9704744,161.8974 106.158004,158.3928 116.702513,152.3394 C116.786286,152.3016 116.875463,152.2827 116.956533,152.2341 C117.01058,152.2017 117.040305,152.1504 117.09165,152.1153 C128.006379,145.7595 137.126759,136.6578 143.501566,125.7606 C143.55291,125.6877 143.617766,125.631 143.663706,125.55 C143.696134,125.4933 143.693432,125.4339 143.720455,125.3772 C149.892588,114.6852 153.440753,102.303 153.440753,89.1 C153.440753,75.897 149.892588,63.5148 143.723158,52.8228 Z" id="Shape"></path>
                <path d="M56.6666667,35 L43.3333333,35 C40.3893333,35 38,37.464 38,40.5 C38,43.536 40.3893333,46 43.3333333,46 L56.6666667,46 C59.6106667,46 62,43.536 62,40.5 C62,37.464 59.6106667,35 56.6666667,35 Z" id="Shape"></path>
                <path d="M56.5714286,54 L29.4285714,54 C26.432,54 24,56.464 24,59.5 C24,62.536 26.432,65 29.4285714,65 L56.5714286,65 C59.568,65 62,62.536 62,59.5 C62,56.464 59.568,54 56.5714286,54 Z" id="Shape"></path>
                <path d="M56.6315789,73 L16.3684211,73 C13.4050526,73 11,75.464 11,78.5 C11,81.536 13.4050526,84 16.3684211,84 L56.6315789,84 C59.5949474,84 62,81.536 62,78.5 C62,75.464 59.5949474,73 56.6315789,73 Z" id="Shape"></path>
                <path d="M56.6086957,92 L5.39130435,92 C2.41530435,92 0,94.464 0,97.5 C0,100.536 2.41530435,103 5.39130435,103 L56.6086957,103 C59.5846957,103 62,100.536 62,97.5 C62,94.464 59.5846957,92 56.6086957,92 Z" id="Shape"></path>
                <path d="M56.5882353,111 L21.4117647,111 C18.4244706,111 16,113.464 16,116.5 C16,119.536 18.4244706,122 21.4117647,122 L56.5882353,122 C59.5755294,122 62,119.536 62,116.5 C62,113.464 59.5755294,111 56.5882353,111 Z" id="Shape"></path>
                <path d="M56.5454545,130 L37.4545455,130 C34.4436364,130 32,132.464 32,135.5 C32,138.536 34.4436364,141 37.4545455,141 L56.5454545,141 C59.5563636,141 62,138.536 62,135.5 C62,132.464 59.5563636,130 56.5454545,130 Z" id="Shape"></path>
            </g>
        </g>
    </g>
</svg>